# xmcd CD database file generated by MAGIX_Freedb v0.9beta0
# 
# Track frame offsets:
#      150
#      17718
#      36948
#      53205
#      71430
#      95532
#      111730
#      130736
#      148629
#      168907
#      185818
#      213276
#      222481
#      239711
#      270508
#      290179
#      301759
#      317990
#      341328
# 
# Disc length: 4773 seconds
# 
# Revision: 1 
# Processed by: cddbd v1.5.2PL0 Copyright (c) Steve Scherf et al.
# Submitted via: MAGIX_Freedb v0.9beta0
# 
DISCID=2f12a313
DTITLE=Tori Amos - The Beekeeper
DYEAR=05
DGENRE=
TTITLE0=Tori Amos - Parasol
TTITLE1=Sweet The Sting
TTITLE2=The Power Of Orange Knickers
TTITLE3=Jamaica Inn
TTITLE4=Barons Of Suburbia
TTITLE5=Sleeps With Butterflies
TTITLE6=General Joy
TTITLE7=Mother Revolution
TTITLE8=Ribbons Undone
TTITLE9=Cars And Guitars
TTITLE10=Witness
TTITLE11=Original Sinsuality
TTITLE12=Ireland
TTITLE13=The Beekeeper
TTITLE14=Martha's Foolish Ginger
TTITLE15=Hoochie Woman
TTITLE16=Goodbye Pisces
TTITLE17=Marys Of The Sea
TTITLE18=Toast
EXTD=
EXTT0=
EXTT1=
EXTT2=
EXTT3=
EXTT4=
EXTT5=
EXTT6=
EXTT7=
EXTT8=
EXTT9=
EXTT10=
EXTT11=
EXTT12=
EXTT13=
EXTT14=
EXTT15=
EXTT16=
EXTT17=
EXTT18=
PLAYORDER=
